<svg xmlns="http://www.w3.org/2000/svg" version="1.1" xmlns:xlink="http://www.w3.org/1999/xlink" xmlns:svgjs="http://svgjs.dev/svgjs" width="1440" height="560" preserveAspectRatio="none" viewBox="0 0 1440 560"><g mask="url(&quot;#SvgjsMask1005&quot;)" fill="none"><rect width="1440" height="560" x="0" y="0" fill="#0e2a47"></rect><path d="M -959.968911970077,123 C -863.97,190.8 -671.97,453.8 -479.96891197007693,462 C -287.97,470.2 -191.97,158.4 0.031088029923068916,164 C 192.03,169.6 288.03,501.4 480.03108802992307,490 C 672.03,478.6 768.04,115.6 960.031088029923,107 C 1152.02,98.4 1344.01,379 1440,447" stroke="rgba(51, 121, 194, 0.58)" stroke-width="2"></path><path d="M -127.54338302396769,363 C -31.54,318.8 160.46,123.4 352.4566169760323,142 C 544.46,160.6 640.46,459.6 832.4566169760324,456 C 1024.46,452.4 1120.46,149 1312.4566169760324,124 C 1504.46,99 1766.95,336 1792.4566169760324,331 C 1817.97,326 1510.49,145.4 1440,99" stroke="rgba(51, 121, 194, 0.58)" stroke-width="2"></path><path d="M -299.85362442893313,304 C -203.85,297.8 -11.85,250 180.14637557106687,273 C 372.15,296 468.15,451.6 660.1463755710669,419 C 852.15,386.4 948.15,131.6 1140.146375571067,110 C 1332.15,88.4 1560.18,302.4 1620.146375571067,311 C 1680.12,319.6 1476.03,184.6 1440,153" stroke="rgba(51, 121, 194, 0.58)" stroke-width="2"></path><path d="M -885.9164656130458,185 C -789.92,239 -597.92,448 -405.91646561304583,455 C -213.92,462 -117.92,238 74.08353438695417,220 C 266.08,202 362.08,356.4 554.0835343869542,365 C 746.08,373.6 856.9,246.2 1034.0835343869542,263 C 1211.27,279.8 1358.82,411.8 1440,449" stroke="rgba(51, 121, 194, 0.58)" stroke-width="2"></path></g><defs><mask id="SvgjsMask1005"><rect width="1440" height="560" fill="#ffffff"></rect></mask></defs></svg>